# xmcd
#
# Track frame offsets: 
#        150
#        22940
#        33695
#        50900
#        73497
#        94667
#        121575
#        135060
#        150202
#        170530
#        186945
#        202167
#        217102
#        231920
#        249885
#        261217
#
# Disc length: 3781 seconds
#
# Revision: 3
# Processed by: cddbd v1.5.2PL0 Copyright (c) Steve Scherf et al.
# Submitted via: ExactAudioCopy v0.95b4
#
DISCID=e00ec310
DTITLE=The Dukes Of Stratosphear - Chips From the Chocolate Fireball
DYEAR=1987
DGENRE=Psychedelic Rock
TTITLE0=25 O'Clock
TTITLE1=Bike Ride To The Moon
TTITLE2=My Love Explode
TTITLE3=What In The World??
TTITLE4=Your Gold Dress
TTITLE5=The Mole From The Ministry
TTITLE6=Vanishing Girl
TTITLE7=Have You Seen Jackie?
TTITLE8=Little Lighthouse
TTITLE9=You're A Good Man Albert Brown
TTITLE10=Collideascope
TTITLE11=You're My Drug
TTITLE12=Shiny Cage
TTITLE13=Brainiac's Daughter
TTITLE14=The Affiliated
TTITLE15=Pale and Precious
EXTD=(Alter-egos of the band XTC)
EXTT0=
EXTT1=
EXTT2=
EXTT3=
EXTT4=
EXTT5=
EXTT6=
EXTT7=
EXTT8=
EXTT9=
EXTT10=
EXTT11=
EXTT12=
EXTT13=
EXTT14=
EXTT15=
PLAYORDER=
